<svg width="28" height="22" viewBox="0 0 28 22" fill="none" xmlns="http://www.w3.org/2000/svg">
<path d="M1.96827 0.500045C1.68654 0.500045 1.41635 0.612398 1.21714 0.812388C1.01792 1.01238 0.906006 1.28362 0.906006 1.56645C0.906006 1.84928 1.01792 2.12052 1.21714 2.32051C1.41635 2.5205 1.68654 2.63285 1.96827 2.63285H4.3265L7.11389 13.8301C7.35077 14.7792 8.1974 15.4297 9.1715 15.4297H22.418C23.3772 15.4297 24.1919 14.7899 24.4437 13.8621L27.1971 3.69926H24.9727L22.4169 13.2969H9.17043L6.38411 2.09965C6.26901 1.64027 6.00369 1.23296 5.63062 0.942937C5.25756 0.652913 4.79834 0.496958 4.3265 0.500045H1.96827ZM21.0891 15.4297C19.3416 15.4297 17.9023 16.8747 17.9023 18.6289C17.9023 20.3831 19.3416 21.8281 21.0891 21.8281C22.8365 21.8281 24.2759 20.3831 24.2759 18.6289C24.2759 16.8747 22.8365 15.4297 21.0891 15.4297ZM11.5287 15.4297C9.78124 15.4297 8.34187 16.8747 8.34187 18.6289C8.34187 20.3831 9.78124 21.8281 11.5287 21.8281C13.2761 21.8281 14.7155 20.3831 14.7155 18.6289C14.7155 16.8747 13.2761 15.4297 11.5287 15.4297ZM14.7155 0.500045V5.83206H11.5287L15.7777 10.0977L20.0268 5.83206H16.84V0.500045H14.7155ZM11.5287 17.5625C12.1278 17.5625 12.5909 18.0275 12.5909 18.6289C12.5909 19.2304 12.1278 19.6953 11.5287 19.6953C10.9295 19.6953 10.4664 19.2304 10.4664 18.6289C10.4664 18.0275 10.9295 17.5625 11.5287 17.5625ZM21.0891 17.5625C21.6882 17.5625 22.1513 18.0275 22.1513 18.6289C22.1513 19.2304 21.6882 19.6953 21.0891 19.6953C20.4899 19.6953 20.0268 19.2304 20.0268 18.6289C20.0268 18.0275 20.4899 17.5625 21.0891 17.5625Z" fill="white"/>
</svg>
