<svg width="45" height="43" viewBox="0 0 45 43" fill="none" xmlns="http://www.w3.org/2000/svg">
<path d="M19.6292 0.345957C9.52825 1.44698 1.40359 9.59453 0.305662 19.5037C-0.792266 29.8533 5.13654 39.1019 14.1395 42.6252C14.7983 42.8454 15.4571 42.4049 15.4571 41.5241V38.0009C15.4571 38.0009 14.5787 38.2211 13.4808 38.2211C10.4066 38.2211 9.08908 35.5786 8.8695 34.0372C8.64991 33.1564 8.21074 32.4958 7.55198 31.8351C6.89323 31.6149 6.67364 31.6149 6.67364 31.3947C6.67364 30.9543 7.3324 30.9543 7.55198 30.9543C8.8695 30.9543 9.96742 32.4958 10.4066 33.1564C11.5045 34.918 12.822 35.3584 13.4808 35.3584C14.3591 35.3584 15.0179 35.1382 15.4571 34.918C15.6766 33.3766 16.3354 31.8351 17.6529 30.9543C12.6025 29.8533 8.8695 26.9907 8.8695 22.1462C8.8695 19.7239 9.96742 17.3017 11.5045 15.54C11.2849 15.0996 11.0654 13.9986 11.0654 12.4572C11.0654 11.5764 11.0654 10.2551 11.7241 8.93392C11.7241 8.93392 14.7983 8.93392 17.8725 11.7966C18.9704 11.3562 20.5075 11.136 22.0446 11.136C23.5817 11.136 25.1188 11.3562 26.4363 11.7966C29.291 8.93392 32.5847 8.93392 32.5847 8.93392C33.0239 10.2551 33.0239 11.5764 33.0239 12.4572C33.0239 14.2188 32.8043 15.0996 32.5847 15.54C34.1218 17.3017 35.2198 19.5037 35.2198 22.1462C35.2198 26.9907 31.4868 29.8533 26.4363 30.9543C27.7539 32.0554 28.6322 34.0372 28.6322 36.019V41.7443C28.6322 42.4049 29.291 43.0656 30.1693 42.8454C38.294 39.5423 44.0032 31.6149 44.0032 22.3664C44.0032 9.15412 32.8043 -1.19547 19.6292 0.345957Z" fill="#003566"/>
</svg>
