<svg width="30" height="28" viewBox="0 0 30 28" fill="none" xmlns="http://www.w3.org/2000/svg">
<path d="M22.0312 0.873779C19.1313 0.873779 16.5888 2.37753 15 4.66128C13.4112 2.37753 10.8687 0.873779 7.96875 0.873779C3.91125 0.873779 0 4.31628 0 9.31128C0 14.655 3.835 19.12 7.285 22.095C9.45206 23.9473 11.8045 25.5709 14.305 26.94L14.34 26.9613L14.35 26.965L14.3488 26.9688C14.5525 27.075 14.7762 27.1263 15 27.125C15.2238 27.1263 15.4475 27.0738 15.6512 26.9688L15.65 26.965L15.66 26.9613L15.695 26.94C18.1955 25.5709 20.5479 23.9473 22.715 22.095C26.165 19.12 30 14.655 30 9.31128C30 4.31628 26.0888 0.873779 22.0312 0.873779V0.873779ZM20.8825 19.9675C19.0567 21.5298 17.0885 22.9176 15.0038 24.1125L14.9987 24.11L14.9937 24.1125C12.9097 22.9164 10.9416 21.5287 9.115 19.9675C5.76875 17.0838 2.80625 13.345 2.80625 9.31378C2.80625 5.87128 5.4575 3.68878 7.9625 3.68878C10.5375 3.68878 12.855 5.53753 13.6425 8.29378C13.8212 8.91253 14.3875 9.29003 15 9.28878C15.6125 9.29003 16.1788 8.91128 16.3563 8.29378C17.1438 5.53753 19.4612 3.68878 22.0362 3.68878C24.5412 3.68878 27.1925 5.87128 27.1925 9.31378C27.1925 13.345 24.23 17.0838 20.8825 19.9675V19.9675Z" fill="white"/>
</svg>
