<svg width="210" height="32" viewBox="0 0 210 32" fill="none" xmlns="http://www.w3.org/2000/svg">
<path d="M15 23.5875L22.725 28.25L20.675 19.4625L27.5 13.55L18.5125 12.7875L15 4.5L11.4875 12.7875L2.5 13.55L9.325 19.4625L7.275 28.25L15 23.5875Z" fill="#FFD60A"/>
<path d="M60 21.5875L67.725 26.25L65.675 17.4625L72.5 11.55L63.5125 10.7875L60 2.5L56.4875 10.7875L47.5 11.55L54.325 17.4625L52.275 26.25L60 21.5875Z" fill="#FFD60A"/>
<path d="M105 21.5875L112.725 26.25L110.675 17.4625L117.5 11.55L108.513 10.7875L105 2.5L101.487 10.7875L92.5 11.55L99.325 17.4625L97.275 26.25L105 21.5875Z" fill="#FFD60A"/>
<path d="M162.5 12.55L153.513 11.775L150 3.5L146.487 11.7875L137.5 12.55L144.325 18.4625L142.275 27.25L150 22.5875L157.725 27.25L155.688 18.4625L162.5 12.55ZM150 20.25L145.3 23.0875L146.55 17.7375L142.4 14.1375L147.875 13.6625L150 8.625L152.137 13.675L157.612 14.15L153.463 17.75L154.713 23.1L150 20.25Z" fill="#FFD60A"/>
<path d="M207.5 12.55L198.513 11.775L195 3.5L191.487 11.7875L182.5 12.55L189.325 18.4625L187.275 27.25L195 22.5875L202.725 27.25L200.688 18.4625L207.5 12.55ZM195 20.25L190.3 23.0875L191.55 17.7375L187.4 14.1375L192.875 13.6625L195 8.625L197.137 13.675L202.612 14.15L198.463 17.75L199.713 23.1L195 20.25Z" fill="#FFD60A"/>
</svg>
