<svg width="36" height="36" viewBox="0 0 36 36" fill="none" xmlns="http://www.w3.org/2000/svg">
<path d="M0 18C0 13.2261 1.89642 8.64773 5.27208 5.27208C8.64773 1.89642 13.2261 0 18 0C22.7739 0 27.3523 1.89642 30.7279 5.27208C34.1036 8.64773 36 13.2261 36 18C36 22.7739 34.1036 27.3523 30.7279 30.7279C27.3523 34.1036 22.7739 36 18 36C13.2261 36 8.64773 34.1036 5.27208 30.7279C1.89642 27.3523 0 22.7739 0 18V18ZM16.875 25.875C16.875 26.1734 16.9935 26.4595 17.2045 26.6705C17.4155 26.8815 17.7016 27 18 27C18.2984 27 18.5845 26.8815 18.7955 26.6705C19.0065 26.4595 19.125 26.1734 19.125 25.875L19.125 12.8407L23.9535 17.6715C24.1647 17.8827 24.4513 18.0014 24.75 18.0014C25.0487 18.0014 25.3353 17.8827 25.5465 17.6715C25.7577 17.4603 25.8764 17.1737 25.8764 16.875C25.8764 16.5763 25.7577 16.2897 25.5465 16.0785L18.7965 9.3285C18.692 9.22373 18.5679 9.14061 18.4312 9.0839C18.2945 9.02718 18.148 8.99799 18 8.99799C17.852 8.99799 17.7055 9.02718 17.5688 9.0839C17.4321 9.14061 17.308 9.22373 17.2035 9.3285L10.4535 16.0785C10.2423 16.2897 10.1236 16.5763 10.1236 16.875C10.1236 17.1737 10.2423 17.4603 10.4535 17.6715C10.6647 17.8827 10.9513 18.0014 11.25 18.0014C11.5487 18.0014 11.8353 17.8827 12.0465 17.6715L16.875 12.8407L16.875 25.875Z" fill="white"/>
</svg>
