<svg width="25" height="31" viewBox="0 0 25 31" fill="none" xmlns="http://www.w3.org/2000/svg">
<path d="M1.92308 9.6875V29.0625C1.92308 30.1281 2.78846 31 3.84615 31H21.1538C22.2115 31 23.0769 30.1281 23.0769 29.0625V9.6875H1.92308ZM7.69231 27.125H5.76923V13.5625H7.69231V27.125ZM11.5385 27.125H9.61538V13.5625H11.5385V27.125ZM15.3846 27.125H13.4615V13.5625H15.3846V27.125ZM19.2308 27.125H17.3077V13.5625H19.2308V27.125ZM23.5577 3.875H17.3077V1.45312C17.3062 1.0682 17.1537 0.699484 16.8836 0.427301C16.6134 0.155119 16.2474 0.00153052 15.8654 0L9.13462 0C8.75256 0.00153052 8.38658 0.155119 8.11643 0.427301C7.84627 0.699484 7.69383 1.0682 7.69231 1.45312V3.875H1.44231C1.0601 3.87602 0.693829 4.02945 0.423563 4.30174C0.153298 4.57403 0.00101518 4.94305 0 5.32812V7.75H25V5.32812C24.999 4.94305 24.8467 4.57403 24.5764 4.30174C24.3062 4.02945 23.9399 3.87602 23.5577 3.875ZM15.3846 3.875H9.61538V1.96269H15.3846V3.875Z" fill="white"/>
</svg>
