<svg width="40" height="40" viewBox="0 0 40 40" fill="none" xmlns="http://www.w3.org/2000/svg">
<path d="M29.0892 22C30.5886 22 31.9081 21.18 32.5879 19.94L39.7452 6.96C40.485 5.64 39.5253 4 38.0059 4H8.41687L6.53757 0H0V4H3.99852L11.1958 19.18L8.49684 24.06C7.03739 26.74 8.95667 30 11.9955 30H35.9866V26H11.9955L14.1947 22H29.0892ZM10.3162 8H34.6071L29.0892 18H15.0544L10.3162 8ZM11.9955 32C9.79636 32 8.01702 33.8 8.01702 36C8.01702 38.2 9.79636 40 11.9955 40C14.1947 40 15.9941 38.2 15.9941 36C15.9941 33.8 14.1947 32 11.9955 32ZM31.9881 32C29.7889 32 28.0096 33.8 28.0096 36C28.0096 38.2 29.7889 40 31.9881 40C34.1873 40 35.9866 38.2 35.9866 36C35.9866 33.8 34.1873 32 31.9881 32Z" fill="white"/>
</svg>
