<svg width="36" height="36" viewBox="0 0 36 36" fill="none" xmlns="http://www.w3.org/2000/svg">
<path d="M36 18C36 22.7739 34.1036 27.3523 30.7279 30.7279C27.3523 34.1036 22.7739 36 18 36C13.2261 36 8.64773 34.1036 5.27208 30.7279C1.89642 27.3523 0 22.7739 0 18C0 13.2261 1.89642 8.64773 5.27208 5.27208C8.64773 1.89642 13.2261 0 18 0C22.7739 0 27.3523 1.89642 30.7279 5.27208C34.1036 8.64773 36 13.2261 36 18V18ZM19.125 10.125C19.125 9.82663 19.0065 9.54048 18.7955 9.32951C18.5845 9.11853 18.2984 9 18 9C17.7016 9 17.4155 9.11853 17.2045 9.32951C16.9935 9.54048 16.875 9.82663 16.875 10.125V23.1593L12.0465 18.3285C11.8353 18.1173 11.5487 17.9986 11.25 17.9986C10.9513 17.9986 10.6647 18.1173 10.4535 18.3285C10.2423 18.5397 10.1236 18.8263 10.1236 19.125C10.1236 19.4237 10.2423 19.7103 10.4535 19.9215L17.2035 26.6715C17.308 26.7763 17.4321 26.8594 17.5688 26.9161C17.7055 26.9728 17.852 27.002 18 27.002C18.148 27.002 18.2945 26.9728 18.4312 26.9161C18.5679 26.8594 18.692 26.7763 18.7965 26.6715L25.5465 19.9215C25.7577 19.7103 25.8764 19.4237 25.8764 19.125C25.8764 18.8263 25.7577 18.5397 25.5465 18.3285C25.3353 18.1173 25.0487 17.9986 24.75 17.9986C24.4513 17.9986 24.1647 18.1173 23.9535 18.3285L19.125 23.1593V10.125Z" fill="white"/>
</svg>
