<svg width="28" height="22" viewBox="0 0 28 22" fill="none" xmlns="http://www.w3.org/2000/svg">
<path d="M11.018 14.9148C11.018 15.3291 10.9521 15.7537 10.8205 16.1887C10.6888 16.6238 10.4623 17.0173 10.1411 17.3695C9.8198 17.7216 9.43797 17.8977 8.99557 17.8977C8.55317 17.8977 8.17134 17.7216 7.85008 17.3695C7.52881 17.0173 7.30234 16.6238 7.17068 16.1887C7.03901 15.7537 6.97318 15.3291 6.97318 14.9148C6.97318 14.5005 7.03901 14.0758 7.17068 13.6408C7.30234 13.2058 7.52881 12.8122 7.85008 12.46C8.17134 12.1079 8.55317 11.9318 8.99557 11.9318C9.43797 11.9318 9.8198 12.1079 10.1411 12.46C10.4623 12.8122 10.6888 13.2058 10.8205 13.6408C10.9521 14.0758 11.018 14.5005 11.018 14.9148ZM21.1299 14.9148C21.1299 15.3291 21.0641 15.7537 20.9324 16.1887C20.8008 16.6238 20.5743 17.0173 20.253 17.3695C19.9318 17.7216 19.5499 17.8977 19.1075 17.8977C18.6651 17.8977 18.2833 17.7216 17.962 17.3695C17.6408 17.0173 17.4143 16.6238 17.2826 16.1887C17.151 15.7537 17.0851 15.3291 17.0851 14.9148C17.0851 14.5005 17.151 14.0758 17.2826 13.6408C17.4143 13.2058 17.6408 12.8122 17.962 12.46C18.2833 12.1079 18.6651 11.9318 19.1075 11.9318C19.5499 11.9318 19.9318 12.1079 20.253 12.46C20.5743 12.8122 20.8008 13.2058 20.9324 13.6408C21.0641 14.0758 21.1299 14.5005 21.1299 14.9148ZM23.6579 14.9148C23.6579 13.6719 23.2945 12.6154 22.5677 11.7454C21.8409 10.8754 20.8561 10.4403 19.6131 10.4403C19.1813 10.4403 18.1543 10.5491 16.5321 10.7666C15.7843 10.8805 14.9574 10.9375 14.0515 10.9375C13.1457 10.9375 12.3188 10.8805 11.571 10.7666C9.9699 10.5491 8.9429 10.4403 8.48997 10.4403C7.24704 10.4403 6.26218 10.8754 5.53539 11.7454C4.80859 12.6154 4.44519 13.6719 4.44519 14.9148C4.44519 15.8262 4.61372 16.6212 4.95079 17.2996C5.28785 17.978 5.71445 18.5114 6.23058 18.8998C6.74671 19.2882 7.38924 19.5989 8.15817 19.832C8.9271 20.065 9.66443 20.2178 10.3702 20.2903C11.0759 20.3628 11.8606 20.3991 12.7244 20.3991H15.3787C16.2425 20.3991 17.0272 20.3628 17.7329 20.2903C18.4387 20.2178 19.176 20.065 19.9449 19.832C20.7139 19.5989 21.3564 19.2882 21.8725 18.8998C22.3886 18.5114 22.8152 17.978 23.1523 17.2996C23.4894 16.6212 23.6579 15.8262 23.6579 14.9148ZM27.1971 12.1804C27.1971 14.3244 26.8758 16.0386 26.2333 17.3229C25.833 18.1204 25.2774 18.8092 24.5664 19.3892C23.8554 19.9692 23.1128 20.4146 22.3386 20.7253C21.5644 21.036 20.6691 21.282 19.6526 21.4633C18.6362 21.6445 17.7329 21.7585 16.9429 21.8051C16.1529 21.8517 15.2734 21.875 14.3043 21.875C13.4828 21.875 12.7349 21.8595 12.0608 21.8284C11.3866 21.7973 10.6098 21.7326 9.73027 21.6342C8.85074 21.5358 8.04757 21.3804 7.32078 21.1681C6.59398 20.9558 5.87245 20.6891 5.15619 20.368C4.43992 20.0469 3.80266 19.6274 3.2444 19.1095C2.68613 18.5917 2.2332 17.9961 1.8856 17.3229C1.23254 16.0489 0.906006 14.3348 0.906006 12.1804C0.906006 9.72567 1.62227 7.67489 3.0548 6.02805C2.7704 5.17874 2.6282 4.29835 2.6282 3.3869C2.6282 2.18543 2.8968 1.05646 3.43399 0C4.57159 0 5.57225 0.20456 6.43598 0.613681C7.29971 1.0228 8.29511 1.66238 9.42217 2.5324C10.9706 2.16989 12.598 1.98864 14.3043 1.98864C15.8633 1.98864 17.3379 2.15436 18.7283 2.4858C19.8343 1.63648 20.8192 1.00985 21.6829 0.605913C22.5466 0.201971 23.542 0 24.6691 0C25.2063 1.05646 25.4749 2.18543 25.4749 3.3869C25.4749 4.288 25.3327 5.15802 25.0483 5.99698C26.4808 7.65418 27.1971 9.71532 27.1971 12.1804Z" fill="white"/>
</svg>
