<svg width="40" height="40" viewBox="0 0 40 40" fill="none" xmlns="http://www.w3.org/2000/svg">
<path d="M20 0C8.96 0 0 8.96 0 20C0 31.04 8.96 40 20 40C31.04 40 40 31.04 40 20C40 8.96 31.04 0 20 0ZM10.14 32.56C11 30.76 16.24 29 20 29C23.76 29 29.02 30.76 29.86 32.56C27.14 34.72 23.72 36 20 36C16.28 36 12.86 34.72 10.14 32.56ZM32.72 29.66C29.86 26.18 22.92 25 20 25C17.08 25 10.14 26.18 7.28 29.66C5.24 26.98 4 23.64 4 20C4 11.18 11.18 4 20 4C28.82 4 36 11.18 36 20C36 23.64 34.76 26.98 32.72 29.66V29.66ZM20 8C16.12 8 13 11.12 13 15C13 18.88 16.12 22 20 22C23.88 22 27 18.88 27 15C27 11.12 23.88 8 20 8ZM20 18C18.34 18 17 16.66 17 15C17 13.34 18.34 12 20 12C21.66 12 23 13.34 23 15C23 16.66 21.66 18 20 18Z" fill="white"/>
</svg>
